<?xml version="1.0" ?><!DOCTYPE svg  PUBLIC '-//W3C//DTD SVG 1.1//EN'  'http://www.w3.org/Graphics/SVG/1.1/DTD/svg11.dtd'><svg enable-background="new 0 0 48 48" height="48px" version="1.1" viewBox="0 0 48 48" width="48px" xml:space="preserve" xmlns="http://www.w3.org/2000/svg" xmlns:xlink="http://www.w3.org/1999/xlink"><g id="Layer_1"/><g id="Layer_2"/><g id="Layer_3"/><g id="Layer_4"/><g id="Layer_5"/><g id="Layer_7"/><g id="Layer_6"/><g id="Layer_8"/><g id="Layer_9"/><g id="Layer_11"/><g id="Layer_10"><g><g><path d="M43,15H5c-0.553,0-1-0.448-1-1v-4c0-0.552,0.447-1,1-1h38c0.553,0,1,0.448,1,1v4     C44,14.552,43.553,15,43,15z M6,13h36v-2H6V13z" fill="#231F20"/></g><g><path d="M43,27H5c-0.553,0-1-0.447-1-1v-4c0-0.552,0.447-1,1-1h38c0.553,0,1,0.448,1,1v4     C44,26.553,43.553,27,43,27z M6,25h36v-2H6V25z" fill="#231F20"/></g><g><path d="M43,39H5c-0.553,0-1-0.447-1-1v-4c0-0.553,0.447-1,1-1h38c0.553,0,1,0.447,1,1v4     C44,38.553,43.553,39,43,39z M6,37h36v-2H6V37z" fill="#231F20"/></g></g></g><g id="Layer_12"/><g id="Layer_13"/></svg>